Godzilla.Terror.Of.Mechagodzilla.1975.Xvid-NvadR 
http://www.imdb.com/title/tt0073373/

Mechagodzilla is back! With a new improved design full of detail!

Plus!         No Annoying Kids! Only Adult Drama!
              
A race of malevolent aliens bent on world domination unleash the 
ultimate weapon of destruction on mankind, leaving them with no 
hope for survival but the power of the mighty Godzilla. Their 
galaxy dying, the endangered aliens discover a planet that could 
save them from extinction if it wasn't already populated.

In order to solve that significant problem, the scheming 
extraterrestrials construct Mechagodzilla, a 400 foot destroyer 
of worlds armed with powerful lasers and guided missiles. As 
Godzilla prepares to face off against his powerful intergalactic 
doppelganger, the traitorous Professor Mafuni lends his genius to 
the aliens to create the mighty Titanosauraus. Titanosauraus is a 
massive amphibious dinosaur that Professor Controls via a 
biomechanical connection with his android daughter Katsura. But 
just as it begins to appear as if all hope has been lost for both 
Godzilla and the human race, Interpol agents discover that 
Titanosauraus has one weakness that may give the Godzilla the 
crucial edge that he needs in order to emerge victorious.

--------------- SCREENSHOTS ---------------- 
http://www.postimg.com/41000/photo-40347.jpg
 
http://www.postimg.com/41000/photo-40348.jpg
 
http://www.postimg.com/41000/photo-40349.jpg
 
http://www.postimg.com/41000/photo-40350.jpg
 
http://www.postimg.com/41000/photo-40351.jpg
 
http://www.postimg.com/41000/photo-40352.jpg
--------------------------------------------

   General

      Complete name : Godzilla.Terror.Of.Mechagodzilla.1975.Xvid-NvadR.avi
      Format : AVI
      Format/Info : Audio Video Interleave
      File size : 701 MiB
      Duration : 1h 23mn
      Overall bit rate : 1 177 Kbps
      Writing application : VirtualDubMod 1.5.10.2 (build 2542/release)
      Writing library : VirtualDubMod build 2542/release

   Video 

      Format : MPEG-4 Visual
      Format profile : AdvancedSimple@L5
      Format settings, BVOP : Yes
      Format settings, QPel : No
      Format settings, GMC : No warppoints
      Format settings, Matrix : Default (H.263)
      Muxing mode : Packed bitstream
      Codec ID : XVID
      Codec ID/Hint : XviD
      Duration : 1h 23mn
      Bit rate : 1 088 Kbps
      Width : 640 pixels
      Height : 272 pixels
      Display aspect ratio : 2.35:1
      Frame rate : 23.976 fps
      Resolution : 24 bits
      Colorimetry : 4:2:0
      Scan type : Progressive
      Bits/(Pixel*Frame) : 0.261
      Stream size : 648 MiB (92%)
      Writing library : XviD 1.2.1 (UTC 2008-12-04)

   Audio 

      Language : Japanese
      Subtitles : English
      Other Subs : None
      Format : AC-3
      Format/Info : Audio Coding 3
      Codec ID : 2000
      Duration : 1h 23mn
      Bit rate mode : Constant
      Bit rate : 80.0 Kbps
      Channel(s) : 2 channels
      Channel positions : L R
      Sampling rate : 48.0 KHz
      Stream size : 47.6 MiB (7%)
      Alignment : Aligned on interleaves
      Interleave, duration : 42 ms (1.00 video frame)
      Interleave, preload duration : 512 ms

   Source
  
      Region 1 (U.S.) DVD9 (NTSC) 720 x 480 29.970 fps 2.35:1
      Color AC3 Digital Dolby 2CH Stereo 192 Kb/s 48.0 KHz

   Note

      All black borders removed.  All Production Logo's Removed.
      
      
------------------ TORRENT STATS --------------------
[img]http://torrent-stats.info/445f/61654833.png[/img]